<?xml version="1.0" encoding="UTF-8" standalone="no"?>
<svg width="1018px" height="476px" viewBox="0 0 1018 476" version="1.1" xmlns="http://www.w3.org/2000/svg" xmlns:xlink="http://www.w3.org/1999/xlink" xmlns:sketch="http://www.bohemiancoding.com/sketch/ns">
    <!-- Generator: Sketch Beta 3.2.2 (9983) - http://www.bohemiancoding.com/sketch -->
    <title>explain-gm-import</title>
    <desc>Created with Sketch Beta.</desc>
    <defs></defs>
    <g id="Page-1" stroke="none" stroke-width="1" fill="none" fill-rule="evenodd" sketch:type="MSPage">
        <g id="explain-gm-import" sketch:type="MSLayerGroup">
            <rect id="Rectangle-17" fill="#E9E9E9" sketch:type="MSShapeGroup" x="193" y="0" width="565" height="476"></rect>
            <rect id="Rectangle-11" fill="#C34AA6" sketch:type="MSShapeGroup" x="229" y="160" width="500" height="295"></rect>
            <path d="M461.730303,194.847333 C461.730297,194.847267 597.173723,96.0443173 597.173723,96.0443173" id="Path-15" stroke="#820010" stroke-dasharray="4" sketch:type="MSShapeGroup"></path>
            <rect id="Rectangle-13" fill="#8B572A" sketch:type="MSShapeGroup" x="251" y="417" width="269" height="25"></rect>
            <text id="&lt;pagination-gm-role=" sketch:type="MSTextLayer" font-family="Helvetica" font-size="14" font-weight="bold" fill="#FFFFFF">
                <tspan x="262" y="434">&lt;pagination gm-role=‘pagination’&gt;</tspan>
            </text>
            <rect id="Rectangle-12" fill="#57A3FC" sketch:type="MSShapeGroup" x="251" y="278" width="454" height="126"></rect>
            <text id="&lt;table-gm-role=‘list" sketch:type="MSTextLayer" font-family="Helvetica" font-size="14" font-weight="bold" fill="#FFFFFF">
                <tspan x="263" y="298">&lt;table gm-role=‘list’&gt;</tspan>
            </text>
            <text id="&lt;my-table-id=“myTabl" sketch:type="MSTextLayer" font-family="Helvetica" font-size="14" font-weight="bold" fill="#FFFFFF">
                <tspan x="248" y="184">&lt;my-table id=“myTable1” data-source=“D(‘user’).get()”&gt;</tspan>
            </text>
            <g id="Rectangle-14-+-&lt;batch-delete>" transform="translate(252.000000, 196.000000)">
                <rect id="Rectangle-14" fill="#4A4A4A" sketch:type="MSShapeGroup" x="0" y="0" width="221" height="74"></rect>
                <text id="&lt;div-gm-role=‘action" sketch:type="MSTextLayer" font-family="Helvetica" font-size="14" font-weight="bold" fill="#FFFFFF">
                    <tspan x="10" y="17">&lt;div gm-role=‘actions’&gt;</tspan>
                    <tspan x="10" y="34">    &lt;button&gt;create&lt;/button&gt;</tspan>
                    <tspan x="10" y="51">    &lt;button&gt;delete&lt;/button&gt;</tspan>
                    <tspan x="10" y="68">&lt;/div&gt;</tspan>
                </text>
            </g>
            <g id="Rectangle-14-+-&lt;batch-delete>-2" transform="translate(358.000000, 72.000000)">
                <rect id="Rectangle-14" fill="#4A4A4A" sketch:type="MSShapeGroup" x="0" y="0" width="371" height="24"></rect>
                <text id="&lt;div-gm-import=‘myTa" sketch:type="MSTextLayer" font-family="Helvetica" font-size="14" font-weight="bold" fill="#FFFFFF">
                    <tspan x="7" y="17">&lt;div gm-import=‘myTable1’ gm-role=‘actions’&gt;&lt;/div&gt;</tspan>
                </text>
            </g>
            <path d="M237.5,179.5 L181.5,179.5" id="Line" stroke="#979797" stroke-linecap="square" sketch:type="MSShapeGroup"></path>
            <path id="Line-decoration-1" d="M181.5,179.5 C185.28,180.55 188.52,181.45 192.3,182.5 C192.3,180.4 192.3,178.6 192.3,176.5 C188.52,177.55 185.28,178.45 181.5,179.5 C181.5,179.5 181.5,179.5 181.5,179.5 Z" stroke="#979797" stroke-linecap="square"></path>
            <path d="M244.5,210.5 L181.5,186.5" id="Line" stroke="#979797" stroke-linecap="square" sketch:type="MSShapeGroup"></path>
            <path id="Line-decoration-1" d="M181.889322,186.648313 C185.04789,188.975188 187.755235,190.969651 190.913803,193.296526 C191.661394,191.334102 192.302185,189.652024 193.049775,187.689599 C189.143617,187.325149 185.79548,187.012763 181.889322,186.648313 C181.889322,186.648313 181.889322,186.648313 181.889322,186.648313 Z" stroke="#979797" stroke-linecap="square"></path>
            <text id="Naive-part-of-‘my-el" sketch:type="MSTextLayer" font-family="Helvetica" font-size="14" font-weight="bold" fill="#8D8D8D">
                <tspan x="1" y="189">Naive part of ‘my-element’</tspan>
            </text>
            <text id="Share-element-data-s" sketch:type="MSTextLayer" font-family="Heiti SC" font-size="14" font-weight="bold" fill="#8D8D8D">
                <tspan x="813" y="185">Share element data scope</tspan>
            </text>
            <path d="M244.5,269.5 L182.5,196.5" id="Line" stroke="#979797" stroke-linecap="square" sketch:type="MSShapeGroup"></path>
            <path id="Line-decoration-1" d="M183.002197,197.091297 C184.648856,200.652114 186.060277,203.704242 187.706936,207.265059 C189.307549,205.905634 190.679504,204.740412 192.280117,203.380987 C189.032845,201.179596 186.249469,199.292689 183.002197,197.091297 C183.002197,197.091297 183.002197,197.091297 183.002197,197.091297 Z" stroke="#979797" stroke-linecap="square"></path>
            <path d="M241.5,430.5 L193.5,430.5" id="Line" stroke="#979797" stroke-linecap="square" sketch:type="MSShapeGroup"></path>
            <path id="Line-decoration-1" d="M193.5,430.5 C197.28,431.55 200.52,432.45 204.3,433.5 C204.3,431.4 204.3,429.6 204.3,427.5 C200.52,428.55 197.28,429.45 193.5,430.5 C193.5,430.5 193.5,430.5 193.5,430.5 Z" stroke="#979797" stroke-linecap="square"></path>
            <path d="M719.5,173.5 L799.5,173.5" id="Line" stroke="#979797" stroke-linecap="square" sketch:type="MSShapeGroup"></path>
            <path id="Line-decoration-1" d="M799.5,173.5 C795.72,172.45 792.48,171.55 788.7,170.5 C788.7,172.6 788.7,174.4 788.7,176.5 C792.48,175.45 795.72,174.55 799.5,173.5 C799.5,173.5 799.5,173.5 799.5,173.5 Z" stroke="#979797" stroke-linecap="square"></path>
            <path d="M721.5,84.5 L801.5,84.5" id="Line-8" stroke="#979797" stroke-linecap="square" sketch:type="MSShapeGroup"></path>
            <path id="Line-8-decoration-1" d="M801.5,84.5 C797.72,83.45 794.48,82.55 790.7,81.5 C790.7,83.6 790.7,85.4 790.7,87.5 C794.48,86.45 797.72,85.55 801.5,84.5 C801.5,84.5 801.5,84.5 801.5,84.5 Z" stroke="#979797" stroke-linecap="square"></path>
            <text id="Imported-from-my-tab" sketch:type="MSTextLayer" font-family="Helvetica" font-size="14" font-weight="bold" fill="#8D8D8D">
                <tspan x="812" y="74">Imported from my-table,</tspan>
                <tspan x="812" y="91">child elements will be </tspan>
                <tspan x="812" y="108">generated automatically.</tspan>
            </text>
            <path d="M717.5,210.5 L797.5,181.5" id="Line" stroke="#979797" stroke-linecap="square" sketch:type="MSShapeGroup"></path>
            <path id="Line-decoration-1" d="M797.411566,181.532057 C793.500012,181.833136 790.147252,182.091203 786.235698,182.392282 C786.951377,184.366568 787.564815,186.058813 788.280494,188.033098 C791.476369,185.757734 794.215691,183.807422 797.411566,181.532057 C797.411566,181.532057 797.411566,181.532057 797.411566,181.532057 Z" stroke="#979797" stroke-linecap="square"></path>
            <path d="M719.5,272.5 L797.5,190.5" id="Line" stroke="#979797" stroke-linecap="square" sketch:type="MSShapeGroup"></path>
            <path id="Line-decoration-1" d="M797.381156,190.624939 C794.015142,192.640094 791.129987,194.36737 787.763973,196.382525 C789.285545,197.829874 790.589749,199.070458 792.111321,200.517807 C793.955763,197.055303 795.536713,194.087443 797.381156,190.624939 C797.381156,190.624939 797.381156,190.624939 797.381156,190.624939 Z" stroke="#979797" stroke-linecap="square"></path>
            <text id="Use-other-custom-ele" sketch:type="MSTextLayer" font-family="Helvetica" font-size="14" font-weight="bold" fill="#8D8D8D">
                <tspan x="0" y="438">Use other custom element</tspan>
            </text>
            <path d="M718.5,428.5 L791.5,428.5" id="Line" stroke="#979797" stroke-linecap="square" sketch:type="MSShapeGroup"></path>
            <path id="Line-decoration-1" d="M791.5,428.5 C787.72,427.45 784.48,426.55 780.7,425.5 C780.7,427.6 780.7,429.4 780.7,431.5 C784.48,430.45 787.72,429.55 791.5,428.5 C791.5,428.5 791.5,428.5 791.5,428.5 Z" stroke="#979797" stroke-linecap="square"></path>
            <text id="Use-event-listener-t" sketch:type="MSTextLayer" font-family="Helvetica" font-size="14" font-weight="bold" fill="#8D8D8D">
                <tspan x="803" y="428">Use event listener to get data:</tspan>
                <tspan x="803" y="445">el.on(‘page.change’,function(){})</tspan>
            </text>
            <text id="web-page" sketch:type="MSTextLayer" font-family="Helvetica" font-size="36" font-weight="bold" fill="#BEBEBE">
                <tspan x="227" y="39">web page</tspan>
            </text>
        </g>
    </g>
</svg>